<svg version="1" xmlns="http://www.w3.org/2000/svg" width="128" height="128" viewBox="0 0 1280 1280" preserveAspectRatio="xMidYMid meet">
    <g fill="#fbbf84" stroke="none"><path d="M159 1130c-13-10-20-19-15-20 5 0 3-6-3-14-8-10-9-16-1-21 10-6 12-5 14 17 0 7 13 19 29 26 15 7 25 17 22 23-9 14-20 11-46-11zM315 1140c-7-11 35-31 49-22 5 3 1 11-9 19-22 16-32 16-40 3zM346 1091c-4-6-5-15-1-20 3-5 1-12-3-15-5-3-8-15-7-26 2-28 133-160 152-153 14 6 58 83 47 83-4 0-1 7 6 15 7 8 9 15 5 15-4 0-2 7 5 15 6 8 9 19 5 25-9 14-28 1-21-15 2-7 2-16-2-20-4-4-7-10-8-13-1-14-38-82-44-82-3 0-33 28-67 63-60 60-67 76-49 105 5 8 4 18-2 24-6 6-12 6-16-1zM545 1080c-4-6-3-16 3-22 6-6 12-6 17 2 4 6 3 16-3 22-6 6-12 6-17-2zM704 1076c-8-21 3-49 16-41 5 3 10 15 10 25 0 25-18 36-26 16zM904 1076c-8-21 3-49 16-41 5 3 10 15 10 25 0 25-18 36-26 16zM1064 1067c-7-20-2-47 11-50 14-3 19 43 6 56-7 7-12 6-17-6zM696 1011c-4-6-5-15-1-20 3-5 0-13-6-16-5-4-8-13-5-20 2-7 2-16-2-20-4-4-7-10-7-13-1-4-15-35-33-69-18-35-28-65-22-68 5-3 23 21 40 55 17 33 27 60 24 60-4 0-1 7 6 15 7 8 9 15 5 15-4 0-2 7 5 15 7 9 10 18 7 22-4 3-2 12 5 20 8 10 8 17 1 24-8 8-13 7-17 0zM895 1000c-4-6-3-16 3-22 6-6 12-6 17 2 4 6 3 16-3 22-6 6-12 6-17-2zM1055 980c-4-6-3-16 3-22 6-6 12-6 17 2 4 6 3 16-3 22-6 6-12 6-17-2zM135 960c-20-33 45-61 96-41 21 8 32 1 91-57 58-57 65-67 51-77-25-19 1-26 26-8l23 16-77 77c-75 76-79 78-119 74-22-3-47-7-53-9-7-2-13 2-13 10 0 18-17 28-25 15zM886 951c-4-6-5-15-1-20 3-5 0-13-6-16-5-4-8-13-5-20 2-7 2-16-2-20-4-4-8-11-8-16-1-5-3-11-4-14-1-3-3-8-4-12-1-5-19-40-39-80-20-40-33-75-27-78 5-3 25 26 45 65 19 38 32 70 29 70-4 0-1 7 6 15 7 8 9 15 5 15-4 0-2 7 5 15 7 8 9 15 5 15-4 0-2 7 5 15 7 9 10 18 7 22-4 3-2 12 5 20 8 10 8 17 1 24-8 8-13 7-17 0zM1046 931c-4-6-5-15-1-20 3-5 0-13-6-16-5-4-8-13-5-21 3-7 1-16-3-18-6-4-32-80-36-106-2-11-79-157-96-182-11-15-15-29-10-32 5-4 18 6 29 21 18 26 93 169 92 175-1 2 6 21 15 42 9 22 18 49 19 61 1 11 6 27 10 34 4 7 5 15 2 18-3 3-1 12 6 20 8 10 8 17 1 24-8 8-13 7-17 0zM594 768c-4-5 27-44 68-85 42-42 78-71 81-67 3 5-28 44-69 86-42 44-76 72-80 66zM314 756c-10-8-24-12-30-9-15 6-28-14-14-22 5-3 16-3 23 2 6 4 18 8 26 10 7 1 18 6 23 11 16 16-7 23-28 8zM205 730c-8-12 20-24 35-15 6 3 8 11 5 16-8 12-32 12-40-1zM501 676c-17-20-142-79-176-83-16-2-37-6-45-9-8-4-31-7-50-8-19 0-37-5-40-11-6-12 45-19 68-9 10 4 24 6 33 5 9-1 29 4 45 10 16 7 38 14 49 16 11 2 47 20 79 39l60 35 70-72c39-39 66-69 60-65-13 7-37-17-27-28 4-3 17 4 30 16l24 22-78 78c-43 43-80 78-84 78-4 0-12-6-18-14zM127 614c-9-10 22-66 33-59 6 4 4 18-5 36-17 31-18 32-28 23zM860 514c-23-27 60-96 88-74 1 2 6 3 11 4 5 0 12 4 16 8 4 4 13 4 20 2 7-3 16-1 20 5 4 8 12 8 26 1 11-6 17-15 14-20-3-5-1-11 5-15 6-4 8-11 4-16-3-5 0-16 6-24 7-8 9-15 5-15-4 0-2-7 5-15 7-8 9-15 5-15-4 0-2-7 5-15 7-8 9-15 5-15-4 0-2-6 4-13 6-8 8-17 4-20-3-4 0-13 7-22 7-8 9-15 5-15-4 0-1-7 6-17 8-9 13-18 12-20-2-1-2-5-2-8 1-3 2-9 3-15 0-5 4-10 9-10 4 0 10 0 13 0 4 0 1 7-6 15-7 8-9 15-5 15 4 0 2 7-5 15-7 8-9 15-5 15 4 0 2 6-4 13-6 8-8 17-4 20 3 4 0 13-7 22-7 8-9 15-5 15 4 0 2 7-5 15-7 8-9 15-5 15 4 0 2 7-5 15-7 8-9 15-5 15 4 0 2 6-4 13-6 8-8 17-4 20 3 4 0 13-7 22-7 8-9 15-5 15 4 0 2 6-4 13-6 8-8 16-5 20 3 3-3 10-15 16-13 8-22 8-26 1-4-6-11-8-16-4-5 3-17 0-26-8-9-7-18-12-20-10-1 1-4 2-5 1-25-7-40-3-58 16-12 13-19 28-16 34 11 17-11 22-24 5zM581 481c-14-11-19-21-13-25 5-3 20 2 33 12 29 24 11 36-20 13zM474 426c-10-8-22-14-26-15-5 0-10-2-13-2-3-1-9-2-15-3-5 0-10-4-10-8 0-5 0-11 0-14 0-4 6-2 13 4 6 6 15 11 20 11 4 1 8 1 10 2 1 0 10 2 21 4 24 5 41 21 29 28-6 4-18 0-29-7zM776 422c-3-5 8-21 23-36 24-23 32-49 21-63-2-2-4-7-5-13-1-5-4-12-5-15-1-3-3-8-4-12-1-5-4-13-8-19-4-6-2-18 5-26 14-18 345-130 359-122 15 9 4 27-18 29-27 2-306 96-322 108-9 7-9 13-1 23 6 8 8 14 4 14-4 0-3 6 3 13 6 6 11 15 11 20 1 4 1 8 2 10 7 25 1 40-26 67-18 17-35 28-39 22zM736 391c-10-11-13-22-8-25 5-3 17 3 26 13 10 11 13 22 8 25-5 3-17-3-26-13zM315 381c-7-12 12-24 25-16 11 7 4 25-10 25-5 0-11-4-15-9zM235 370c-8-13 20-24 41-16 20 8 9 26-16 26-10 0-22-5-25-10zM660 339c-25-16-67-37-95-48-27-11-63-26-80-32-16-7-34-11-39-10-4 1-14-3-20-9-7-5-16-7-19-4-3 4-14 3-24-1-10-4-28-7-40-6-11 1-24-3-28-8-8-15 21-25 43-16 9 5 24 7 34 6 9-1 19 3 23 9 3 6 11 8 16 5 5-4 14-3 21 1 7 4 23 9 36 10 30 3 206 90 222 109 21 25-5 22-50-6zM127 254c-9-10 22-66 33-59 6 4 4 18-5 36-17 31-18 32-28 23zM185 210c-3-5 0-13 8-16 23-8 102 0 102 11 0 14-102 19-110 5z"/></g><g fill="#fae7d3" stroke="none"><path d="M604 1149c-3-5-9-7-14-4-5 3-11 1-14-4-4-5-2-12 3-15 5-4 12-3 15 2 6 10 76 9 93-1 6-4 14-3 18 3 3 5 4 11 1 11-18 4-26 7-28 9-8 7-69 6-74-1zM964 1149c-3-5-9-7-14-4-5 3-11 1-14-4-4-5-2-12 3-15 5-4 12-3 15 2 6 10 76 9 93-1 6-4 14-3 18 3 3 5 4 11 1 11-18 4-26 7-28 9-8 7-69 6-74-1zM195 1140c-4-6-10-8-14-5-5 2-16-4-26-15-10-11-15-20-10-20 4 0 2-6-4-14-8-9-8-16-2-20 5-4 12-2 16 4 3 5 3 10-1 10-4 0 3 11 16 25 12 13 26 22 31 20 4-3 10-1 13 4 4 5 2 12-3 15-5 4-12 2-16-4zM305 1140c-6-9 1-14 18-11 4 1 12-11 18-26 7-18 13-23 20-16 8 8 7 17-1 33-6 12-14 19-17 16-4-3-12-1-19 5-8 7-14 7-19-1zM704 1106c-4-10-2-22 4-28 8-8 13-7 18 6 4 10 2 22-4 28-8 8-13 7-18-6zM1064 1106c-8-21 3-49 16-41 5 3 10 15 10 25 0 25-18 36-26 16zM330 1050c-11-21-5-44 9-35 13 7 20 44 11 50-5 3-14-4-20-15zM545 1060c-4-6-3-16 3-22 6-6 12-6 17 2 4 6 3 16-3 22-6 6-12 6-17-2zM905 1040c-4-6-3-16 3-22 6-6 12-6 17 2 4 6 3 16-3 22-6 6-12 6-17-2zM695 1030c-4-6-3-16 3-22 6-6 12-6 17 2 4 6 3 16-3 22-6 6-12 6-17-2zM539 1016c-4-16-7-26-9-31-1-3-3-8-4-12-1-5-10-22-19-40-10-19-13-34-7-38 5-3 16 8 25 25 8 16 13 30 9 30-4 0-1 7 6 15 7 8 9 15 5 15-4 0-2 6 4 14 8 10 9 16 1 21-5 3-11 4-11 1zM1055 1000c-4-6-3-16 3-22 6-6 12-6 17 2 4 6 3 16-3 22-6 6-12 6-17-2zM136 981c-10-16 13-66 25-54 6 6 6 19 0 36-11 29-16 32-25 18zM689 986c-1-3-2-9-3-13-1-5-12-30-24-57-12-27-22-50-22-52 0-3-11-22-25-44-25-39-20-64 7-32 23 28 69 121 72 145 1 13 5 28 9 34 4 6 3 14-3 18-5 3-11 4-11 1zM895 980c-4-6-3-16 3-22 6-6 12-6 17 2 4 6 3 16-3 22-6 6-12 6-17-2zM1045 950c-4-6-3-16 3-22 6-6 12-6 17 2 4 6 3 16-3 22-6 6-12 6-17-2zM879 896c-1-3-2-9-3-13-1-5-5-14-9-20-5-7-5-13-1-13 3 0 1-6-5-14-8-10-9-16-1-21 5-3 11-4 11-1 4 16 7 26 9 31 1 3 3 8 4 13 1 4 5 12 9 19 4 6 3 14-3 18-5 3-11 4-11 1zM1029 866c-4-16-7-26-9-31-1-3-4-8-5-12-8-27-44-108-72-162-22-42-30-68-24-74 11-11 97 156 105 203 3 14 5 26 7 28 1 1 2 5 3 10 1 4 5 12 9 19 4 6 3 14-3 18-5 3-11 4-11 1zM357 774c-38-20-24-38 14-19 16 9 27 20 24 25-7 12-4 13-38-6zM815 741c-14-29-21-52-15-56 5-3 21 17 35 44 14 29 21 52 15 56-5 3-21-17-35-44zM235 731c-7-12 12-24 25-16 11 7 4 25-10 25-5 0-11-4-15-9zM139 706c-4-18-7-26-9-28-1-2-4-16-6-33-4-33 21-79 37-69 7 4 6 10-1 18-13 17-19 78-8 93 5 6 5 14-2 18-5 3-11 4-11 1zM746 631c-10-11-13-22-8-25 5-3 17 3 26 13 10 11 13 22 8 25-5 3-17-3-26-13zM895 580c-4-6-3-16 3-22 6-6 12-6 17 2 4 6 3 16-3 22-6 6-12 6-17-2zM875 550c-4-6-3-16 3-22 6-6 12-6 17 2 4 6 3 16-3 22-6 6-12 6-17-2zM1037 484c-3-4-1-16 5-28 7-11 12-24 13-28 0-5 3-8 8-8 6 0 9 5 6 13 0 1-2 10-4 21-4 23-19 39-28 30zM513 441c-29-16-53-27-53-24 0 3-7 0-15-7-8-7-15-9-15-4 0 4-5 3-11-3-6-6-17-9-24-7-7 3-16 1-19-5-4-6-13-8-20-5-17 7-30-12-16-21 6-4 17-2 24 4 7 6 16 8 19 4 4-3 13 0 22 7 8 7 15 9 15 5 0-4 7-2 15 5 8 7 15 9 15 5 0-4 7-2 15 5 8 7 15 10 15 6 0-3 23 5 50 19 28 14 48 30 45 35-8 12-1 14-62-19zM965 460c-4-6-10-8-15-5-5 3-11 1-14-4-4-5-2-12 3-15 5-4 12-2 16 4 4 6 10 8 15 5 5-3 11-1 14 4 4 5 2 12-3 15-5 4-12 2-16-4zM751 416c-7-8-8-17-3-20 6-3 15 1 21 8 7 8 8 17 3 20-6 3-15-1-21-8zM1067 394c-4-4-3-12 1-18 4-6 7-14 8-18 1-5 3-10 4-13 1-3 4-9 5-15 1-5 4-12 5-15 1-3 3-9 4-15 0-5 4-10 9-10 7 0 8 4 6 15-1 3-3 10-4 15-1 6-4 12-5 15-1 3-4 10-5 15-1 6-4 12-5 15-1 3-3 9-4 14-2 14-12 22-19 15zM275 371c-7-12 12-24 25-16 11 7 4 25-10 25-5 0-11-4-15-9zM839 376c-1-3-2-9-3-13-1-5-5-14-9-20-5-7-5-13-1-13 3 0 1-7-6-15-7-8-9-15-5-15 4 0 2-7-5-15-7-8-9-15-5-15 4 0 2-6-4-14-8-10-9-16-1-21 16-10 27 2 25 27-1 13 2 29 8 36 5 6 6 12 2 12-4 0-2 7 5 15 7 8 9 15 5 15-4 0-2 6 4 14 8 10 9 16 1 21-5 3-11 4-11 1zM139 346c-4-18-7-26-9-28-1-2-4-16-6-33-4-33 21-79 37-69 7 4 6 10-1 18-13 17-19 78-8 93 5 6 5 14-2 18-5 3-11 4-11 1zM526 283c-4-5-12-9-17-9-5-1-11-3-14-4-3-1-9-3-15-4-5 0-10-4-10-8 0-5 0-11 0-14 0-4 7-1 15 6 8 7 15 9 15 5 0-4 6-3 13 3 6 6 15 11 20 11 8 1 11 11 5 17-3 2-8 1-12-3zM1107 264c-4-4-3-12 1-18 4-6 7-14 8-18 1-5 3-10 4-13 1-3 4-9 5-15 1-5 4-11 5-12 1-2 3-15 4-31 1-15 6-27 11-27 8 0 12 31 5 45-1 3-4 10-5 15-1 6-4 12-5 15-1 3-4 10-5 15-1 6-4 12-5 15-1 3-3 9-4 14-2 14-12 22-19 15z"/></g><g fill="#fefefe" stroke="none"><path d="M0 1203c0-77 1-78 16-47 19 40 58 76 109 103l40 21-83 0-82 0 0-77zM1155 1259c51-27 90-63 109-103 15-31 16-30 16 47l0 77-82 0-83 0 40-21zM607 1150c-43-13-57-29-57-65 0-40-34-153-54-180-14-19-18-17-86 50-47 47-68 75-64 85 3 8 10 30 14 48 8 32 6 35-26 48-40 17-99 18-144 3-38-14-60-58-59-116 1-49 23-109 39-105 6 1 31 5 54 8 40 4 43 2 110-65l70-70-60-27c-34-15-86-29-122-32-52-4-66-9-79-28-18-28-20-89-3-109 7-8 9-15 5-15-4 0-2-7 5-15 9-11 22-14 40-10 15 3 50 8 78 10 67 6 150 36 208 75l47 31 69-68c78-78 79-74-27-138-86-51-202-85-313-92-84-5-95-9-109-29-18-28-20-89-3-109 7-8 9-15 5-15-4 0-2-7 5-15 9-11 23-14 44-10 17 4 54 8 81 9 181 12 338 69 465 170l45 36 24-25 25-24-17-53c-16-50-16-54 1-69 9-9 85-39 169-67 114-38 155-47 162-38 10 12-79 320-99 340-6 6-31 3-70-9l-61-18-26 25-26 26 20 29c96 134 175 350 192 522 7 69 6 74-16 88-31 21-96 20-128-1-20-13-25-25-25-57 0-106-60-296-126-403l-37-58-70 70c-61 61-69 73-58 86 8 9 10 16 6 16-5 0 0 9 11 21 10 12 18 24 17 28-1 3 6 24 16 47 29 64 40 104 49 172 8 59 7 65-12 77-30 18-67 24-99 15zM0 82l0-82 78 0c76 0 77 1 46 16-40 19-76 58-103 109l-21 40 0-83zM1256 121c-21-45-57-83-101-105-30-16-29-16 48-16l77 0 0 80c0 44-1 80-2 80-2 0-11-18-22-39z"/></g><g fill="#ff7f00" stroke="none"><path d="M115 1268c-40-14-84-56-101-95-18-43-21-1000-3-1054 15-43 55-88 96-105 47-20 1019-20 1066 0 41 17 81 62 96 105 18 54 15 1011-3 1054-17 41-62 81-105 96-45 15-1003 14-1046-1zm576-138c13-7 19-21 19-44 0-56-38-184-76-257l-37-70 73-74c88-88 85-89 154 44 49 95 80 195 96 311 12 84 24 100 80 100 63 0 74-16 67-97-15-159-95-382-178-498l-33-45 33-34 32-33 61 18c34 11 62 18 63 17 2-2 24-73 49-158 26-85 49-160 51-167 3-8-317 89-333 102-1 1 7 27 17 57l19 56-33 32-33 32-52-41c-116-91-294-154-474-168-102-7-116 1-116 67 0 57 14 66 123 79 131 15 245 54 334 114 40 27 73 52 73 55 0 4-33 40-74 81l-73 73-50-31c-69-42-153-70-236-78-80-7-97 4-97 65 0 55 14 69 72 77 68 9 135 32 171 58l29 20-77 77-76 77-38-10c-67-18-74-9-70 88 3 62 8 88 19 95 8 5 50 10 93 10 89 0 97-8 79-68l-12-37 79-79 79-79 26 52c15 28 34 84 43 124 8 40 22 78 31 85 19 15 76 16 103 2z"/></g>
</svg>
