<svg xmlns="http://www.w3.org/2000/svg" width="86px" height="86px" viewBox="0 0 100 100" preserveAspectRatio="xMidYMid" version="1.1">
    <rect x="0" y="0" width="100" height="100" fill="none"/>
    <g transform="scale(0.55)">
        <path d="M14.189453 56.759766A14.19 14.19 0 0 0 13.65625 56.779297L13.65625 71.441406 28.363281 71.441406A14.19 14.19 0 0 0 28.380859 70.949219 14.19 14.19 0 0 0 14.189453 56.759766z" transform="scale(2.1141649,2.1141649)" fill="#fb9610">
            <animate attributeName="opacity" from="0" to="1" dur="1s" begin="0" repeatCount="indefinite" keyTimes="0;0.5;1" values="0;1;1" />
        </path>
        <path d="M90 150h30c0-49.7-40.3-90-90-90v30C63.1 90 90 116.9 90 150z" fill="#fb9610">
            <animate attributeName="opacity" from="0" to="1" dur="1s" begin="0.1" repeatCount="indefinite" keyTimes="0;0.5;1" values="0;1;1" />
        </path>
        <path d="M150 150h30C180 67.2 112.8 0 30 0v30C96.3 30 150 83.7 150 150z" fill="#fb9610">
            <animate attributeName="opacity" from="0" to="1" dur="1s" begin="0.2" repeatCount="indefinite" keyTimes="0;0.5;1" values="0;1;1" />
        </path>
    </g>
</svg>
